<svg width="1440" height="290" viewbox="0 0 1440 290" fill="none" xmlns="http://www.w3.org/2000/svg">
  <mask id="mask0" mask-type="alpha" maskunits="userSpaceOnUse" x="0" y="0" width="1440" height="290">
    <path d="M7.62939e-06 490H1440V102.646L1392 105.931C1344 109.465 1248 115.665 1152 89.4407C1116.47 79.6428 1080.94 65.3181 1045.4 50.9933L1045.4 50.9917C984.933 26.6145 924.467 2.23726 864 0.167674C805.855 -1.97264 747.709 16.7422 689.564 35.4571L689.562 35.4579C651.708 47.6416 613.854 59.8253 576 66.2545C500.562 79.2617 425.125 69.7976 349.687 60.3334C329.125 57.7537 308.562 55.174 288 53.0494C192 43.1302 96 43.1302 48 43.1302H0L7.62939e-06 490Z" fill="#345D9D"></path>
  </mask>
  <g mask="url(#mask0)">
    <path d="M48 19.3974L-1.31103e-06 19.3975L2.78771e-05 919L1440 919L1440 65.5864H1392.5C1344.5 65.5864 1246 60.7554 1150 51.5146C1054 42.2739 940 -47.6463 844 -32.2258C748 -17.0363 674.5 17.6199 575.5 32.0767C476.5 46.5334 408 76.1759 312 51.5146C279 40.5257 171.5 19.3972 48 19.3974Z" fill="#E6DDD0"></path>
  </g>
  <defs>
  </defs>
</svg>